<svg id="Layer_1" data-name="Layer 1" xmlns="http://www.w3.org/2000/svg" width="628" height="114" viewBox="0 0 628 114"><defs><style>.cls-1{fill:#ee4323;}.cls-2{fill:#c73027;}.cls-3{fill:#280f0c;}</style></defs><title>Merkato-Logo</title><path class="cls-1" d="M68.6,92H10.37A4.84,4.84,0,0,1,6,85L28.46,13.39a4.85,4.85,0,0,1,8.67,0L72.94,85A4.84,4.84,0,0,1,68.6,92Z"/><path class="cls-1" d="M97.65,92h-57a4.84,4.84,0,0,1-4.33-7L72.11,13.39a4.84,4.84,0,0,1,8.66,0L102,85A4.84,4.84,0,0,1,97.65,92Z"/><polygon class="cls-2" points="32.8 92.01 76.44 92.01 54.62 48.37 32.8 92.01"/><path class="cls-3" d="M137.17,29.39l1.27,9.18q12-11,24-11,12.75,0,16.19,10.2,11.1-10.2,22.95-10.2,8.55,0,13,4.46t4.46,13V92.26H200.29V50.94q0-4.08-1.41-5.74t-5.22-1.65a15.46,15.46,0,0,0-5.87,1.14,62.76,62.76,0,0,0-8.16,4.47v43.1H161.52V50.94q0-4.08-1.59-5.74c-1.06-1.1-2.79-1.65-5.16-1.65q-5,0-13.9,5.48V92.26H122.12V29.39Z"/><path class="cls-3" d="M274.12,67.14h-22.7c.59,4.59,2,7.67,4.14,9.24s5.76,2.36,10.78,2.36a230.2,230.2,0,0,0,23.46-1.4l1.79,11.73q-9.82,4.71-27.42,4.72t-25.25-7.65q-7.51-7.65-7.52-25.25,0-18.49,7.33-25.89t24.68-7.39q15.68,0,22.69,5.42t7.14,16.51c0,5.87-1.51,10.26-4.52,13.2S280.83,67.14,274.12,67.14ZM251,55.79h17.85q3.44,0,4.65-1.66a8.11,8.11,0,0,0,1.21-4.84q0-4.47-2.29-6.19T264,41.38q-7.26,0-9.94,2.87T251,55.79Z"/><path class="cls-3" d="M350.62,27.61l-1.91,17.47h-5.1q-6.25,0-19.25,4.33V92.26H305.48V29.39h14.67l1.66,9.18q12.87-11,25.5-11Z"/><path class="cls-3" d="M383.65,63.06h-6a64.35,64.35,0,0,1,.89,9.43V92.26H359.68V3h18.87V39.85a69,69,0,0,1-.89,11.48h5.86l15.56-21.94h21.16L403.92,51.2a18.74,18.74,0,0,1-5.86,6v.26a20.3,20.3,0,0,1,5.86,6.75l18.49,28.06H401.25Z"/><path class="cls-3" d="M432.36,43.42l-1.79-12.75a184.54,184.54,0,0,1,32.77-3.06q12.75,0,18.75,5.16t6,17.92V92.26H473.16l-1.91-9.57q-9.44,11.1-23.21,11.1-9.06,0-14.79-4.79t-5.74-13.32V69.3q0-7.51,5.1-11.73t14.16-4.2h22.44V50.56q-.13-4.85-2.23-6.5t-8.1-1.66Q448.43,42.4,432.36,43.42Zm13.77,27.29v2.42q0,6.5,7.4,6.5,7.65,0,15.68-6.12v-8.8h-17Q446.13,64.85,446.13,70.71Z"/><path class="cls-3" d="M527.48,42V71.73q0,3.57,1.53,5c1,.94,2.81,1.4,5.36,1.4h8l2,13.14a53.92,53.92,0,0,1-17.72,2.55q-8.55,0-13.27-4.79t-4.71-13.32V42h-11.1V30l11.1-.64V11.8h18.74V29.39H545V42Z"/><path class="cls-3" d="M585.12,27.61q17.6,0,24.92,7.58t7.34,25.7q0,18.1-7.34,25.57t-24.92,7.45q-17.73,0-25.06-7.45t-7.33-25.57q0-18.24,7.33-25.76T585.12,27.61Zm0,14.15q-7.53,0-10.08,3.83t-2.55,15.3q0,11.22,2.55,15t10.08,3.82q7.26,0,9.88-3.82t2.61-15c0-7.57-.85-12.64-2.55-15.24S590,41.76,585.12,41.76Z"/></svg>